# xmcd CD database file
# Copyright (C) 1996 Ti Kan
#
# Track frame offsets:
#	150
#	10208
#	19334
#	29147
#	37530
#	54604
#	64744
#	83946
#	97364
#	107593
#	117859
#	145415
#	153798
#	164599
#	175180
#	190154
#	199767
#	208722
#	217865
#	229737
#	242610
#	251651
#	264687
#	275503
#	284254
# Disc length: 3949 seconds
#
# Revision: 1
# Processed by: cddbd v1.5.2PL0 Copyright (c) Steve Scherf et al.
# Submitted via: CDCOPY 4.900
#
DISCID=6b0f6b19
DTITLE=The Earls - Remember Then: The Best Of The Earls
DYEAR=1900
DGENRE=
TTITLE0=Remember Then
TTITLE1=Don't Forget
TTITLE2=Cry Cry Cry
TTITLE3=Without You
TTITLE4=Amor
TTITLE5=Let's Waddle
TTITLE6=I Believe
TTITLE7=Oh What A Time
TTITLE8=Cross My Heart
TTITLE9=Kissing
TTITLE10=Old Man River
TTITLE11=Life Is But A Dream
TTITLE12=Never (alternate take)
TTITLE13=Ask Anybody
TTITLE14=Our Day Will Come
TTITLE15=I Keep A Tellin' You
TTITLE16=Cry Cry Cry (unissued version)
TTITLE17=Remember Then (unissued version)
TTITLE18=Eyes
TTITLE19=Out In The Cold Again
TTITLE20=Looking For My Baby
TTITLE21=Remember Me Baby
TTITLE22=Never
TTITLE23=Lookin' My Way
TTITLE24=All Through Our Teens
EXTD=
EXTT0=
EXTT1=
EXTT2=
EXTT3=
EXTT4=
EXTT5=
EXTT6=
EXTT7=
EXTT8=
EXTT9=
EXTT10=
EXTT11=
EXTT12=
EXTT13=
EXTT14=
EXTT15=
EXTT16=
EXTT17=
EXTT18=
EXTT19=
EXTT20=
EXTT21=
EXTT22=
EXTT23=
EXTT24=
PLAYORDER=
